# xmcd
#
# Track frame offsets:
# 150
# 16171
# 32859
# 43417
# 55687
# 71606
# 86661
# 101570
# 120335
# 135377
# 152050
# 168367
# 181256
# 199233
# 216781
#
# Disc length: 3109 seconds
#
#
# Revision: 0
# Processed by: cddbd v1.5.1PL2 Copyright (c) Steve Scherf et al.
# Submitted via: FreeRIP 2.943 
#
DISCID=c80c230f
DTITLE=Di Paulo e Paulinho  - Ao vivo by Alessandro OklolkO
DYEAR=1900
DGENRE=Country
TTITLE0=To indo embora
TTITLE1=Vivendo Longe do Meu Bem/As Andorinhas
TTITLE2=Avião das Nove
TTITLE3=Me Telefone Mais
TTITLE4=Musica da Saudade/ Barra Pesada
TTITLE5=Como Eu Chorei
TTITLE6=São Tantas Coisas
TTITLE7=O Que Tem a Rosa/ Cai Sereno/ Tchau amor
TTITLE8=Roupa de Lua de Mel
TTITLE9=O Coração Chora
TTITLE10=Nada Mudou
TTITLE11=Espinho na Cama
TTITLE12=O Que Eu Sou Sem Você
TTITLE13=Caminheiro
TTITLE14=Amor de Primareva
EXTD=by Alessandro OklolkO
EXTT0=
EXTT1=
EXTT2=
EXTT3=
EXTT4=
EXTT5=
EXTT6=
EXTT7=
EXTT8=
EXTT9=
EXTT10=
EXTT11=
EXTT12=
EXTT13=
EXTT14=
PLAYORDER=
